<svg xmlns="http://www.w3.org/2000/svg" width="399" height="78"><path fill="#344ABD" fill-rule="evenodd" d="M355.678 77.864c-16.561 0-30.599-4.899-39.372-16.554l13.49-6.208c3.399 3.373 10.199 9.585 25.005 9.585 18.314 0 34.217-12.964 29.501-36.164h-.438c1.205 18.297-13.709 25.815-31.367 25.815-17.547 0-35.094-9.148-35.094-25.707 0-17.321 15.244-27.015 39.59-27.015 28.405 0 42.005 15.468 42.005 37.474 0 25.923-20.619 38.774-43.32 38.774zm2.412-61.542c-15.243 0-24.675 3.705-24.675 11.871 0 8.716 10.966 13.073 24.785 13.073 14.915 0 24.348-5.227 24.348-12.635 0-6.974-9.433-12.309-24.458-12.309zm-106.087-1.091c-14.586 0-27.2 8.389-27.2 23.967 0 17.863 15.795 24.835 31.916 24.835 16.669 0 28.624-6.862 32.462-11.766v-.76H252.55V38.216h38.057v28.431c-7.896 5.448-18.863 11.327-35.863 11.327-22.044 0-44.855-13.069-44.855-39.104 0-25.597 21.496-37.906 42.553-37.906 18.424 0 34.984 8.93 41.127 27.119l-13.709 4.253c-3.839-9.26-12.504-17.105-27.857-17.105zM107.466 61.418l62.84-46.076h-62.512V2.052h82.033v15.47l-62.841 46.511h64.377v12.963h-83.897V61.418zM60.21 53.792H23.469l-8.773 23.312H0L27.199 2.052h29.502l27.087 75.052H68.984L60.21 53.792zM42.224 3.687h-.549L28.186 40.07h27.418L42.224 3.687z"/></svg>